name rise30.3154peak39.0474fall46.5389.mot
datacolumns 19
datarows 15
range 15.35327600000000 15.37660700000000
endheader
time	ground_force1_vx	ground_force1_vy	ground_force1_vz	ground_force1_px	ground_force1_py	ground_force1_pz	ground_force2_vx	ground_force2_vy	ground_force2_vz	ground_force2_px	ground_force2_py	ground_force2_pz	ground_torque1_x	ground_torque1_y	ground_torque1_z	ground_torque2_x	ground_torque2_y	ground_torque2_z	
15.35327600000000	7.29992100000000	708.63137500000005	32.66547600000000	0.25996500000000	0.00000000000000	0.08530200000000	0.00000000000000	0.00000000000000	0.00000000000000	0.00000000000000	0.00000000000000	0.00000000000000	0.00000000000000	14.06049700000000	0.00000000000000	0.00000000000000	0.00000000000000	0.00000000000000	
15.35494400000000	7.01761700000000	708.60654499999998	32.65228400000000	0.25903800000000	0.00000000000000	0.08527100000000	0.00000000000000	0.00000000000000	0.00000000000000	0.00000000000000	0.00000000000000	0.00000000000000	0.00000000000000	14.06080700000000	0.00000000000000	0.00000000000000	0.00000000000000	0.00000000000000	
15.35661200000000	6.73076400000000	708.61684700000001	32.64501000000000	0.25815500000000	0.00000000000000	0.08523700000000	0.00000000000000	0.00000000000000	0.00000000000000	0.00000000000000	0.00000000000000	0.00000000000000	0.00000000000000	14.06788100000000	0.00000000000000	0.00000000000000	0.00000000000000	0.00000000000000	
15.35828000000000	6.43899000000000	708.66204000000005	32.64330600000000	0.25731500000000	0.00000000000000	0.08520000000000	0.00000000000000	0.00000000000000	0.00000000000000	0.00000000000000	0.00000000000000	0.00000000000000	0.00000000000000	14.08151100000000	0.00000000000000	0.00000000000000	0.00000000000000	0.00000000000000	
15.35994500000000	6.14193400000000	708.74192200000005	32.64681800000000	0.25651700000000	0.00000000000000	0.08516000000000	0.00000000000000	0.00000000000000	0.00000000000000	0.00000000000000	0.00000000000000	0.00000000000000	0.00000000000000	14.10148300000000	0.00000000000000	0.00000000000000	0.00000000000000	0.00000000000000	
15.36161400000000	5.83924400000000	708.85632999999996	32.65519400000000	0.25575900000000	0.00000000000000	0.08511700000000	0.00000000000000	0.00000000000000	0.00000000000000	0.00000000000000	0.00000000000000	0.00000000000000	0.00000000000000	14.12757200000000	0.00000000000000	0.00000000000000	0.00000000000000	0.00000000000000	
15.36327500000000	5.53058100000000	709.00514099999998	32.66808100000000	0.25504000000000	0.00000000000000	0.08507100000000	0.00000000000000	0.00000000000000	0.00000000000000	0.00000000000000	0.00000000000000	0.00000000000000	0.00000000000000	14.15954500000000	0.00000000000000	0.00000000000000	0.00000000000000	0.00000000000000	
15.36494800000000	5.21561600000000	709.18827299999998	32.68512500000000	0.25435900000000	0.00000000000000	0.08502200000000	0.00000000000000	0.00000000000000	0.00000000000000	0.00000000000000	0.00000000000000	0.00000000000000	0.00000000000000	14.19716300000000	0.00000000000000	0.00000000000000	0.00000000000000	0.00000000000000	
15.36661700000000	4.89403700000000	709.40568299999995	32.70597500000000	0.25371300000000	0.00000000000000	0.08497100000000	0.00000000000000	0.00000000000000	0.00000000000000	0.00000000000000	0.00000000000000	0.00000000000000	0.00000000000000	14.24018000000000	0.00000000000000	0.00000000000000	0.00000000000000	0.00000000000000	
15.36828000000000	4.56554200000000	709.65736900000002	32.73028400000000	0.25310100000000	0.00000000000000	0.08491700000000	0.00000000000000	0.00000000000000	0.00000000000000	0.00000000000000	0.00000000000000	0.00000000000000	0.00000000000000	14.28834500000000	0.00000000000000	0.00000000000000	0.00000000000000	0.00000000000000	
15.36995000000000	4.22984600000000	709.94336399999997	32.75770800000000	0.25252000000000	0.00000000000000	0.08486100000000	0.00000000000000	0.00000000000000	0.00000000000000	0.00000000000000	0.00000000000000	0.00000000000000	0.00000000000000	14.34140000000000	0.00000000000000	0.00000000000000	0.00000000000000	0.00000000000000	
15.37161400000000	3.88667900000000	710.26374199999998	32.78790800000000	0.25196700000000	0.00000000000000	0.08480300000000	0.00000000000000	0.00000000000000	0.00000000000000	0.00000000000000	0.00000000000000	0.00000000000000	0.00000000000000	14.39908400000000	0.00000000000000	0.00000000000000	0.00000000000000	0.00000000000000	
15.37327500000000	3.53578800000000	710.61860700000000	32.82055200000000	0.25144200000000	0.00000000000000	0.08474200000000	0.00000000000000	0.00000000000000	0.00000000000000	0.00000000000000	0.00000000000000	0.00000000000000	0.00000000000000	14.46113300000000	0.00000000000000	0.00000000000000	0.00000000000000	0.00000000000000	
15.37494300000000	3.17693600000000	711.00809600000002	32.85531400000000	0.25094100000000	0.00000000000000	0.08468000000000	0.00000000000000	0.00000000000000	0.00000000000000	0.00000000000000	0.00000000000000	0.00000000000000	0.00000000000000	14.52727800000000	0.00000000000000	0.00000000000000	0.00000000000000	0.00000000000000	
15.37660700000000	2.80990400000000	711.43237599999998	32.89187600000000	0.25046100000000	0.00000000000000	0.08461500000000	0.00000000000000	0.00000000000000	0.00000000000000	0.00000000000000	0.00000000000000	0.00000000000000	0.00000000000000	14.59725100000000	0.00000000000000	0.00000000000000	0.00000000000000	0.00000000000000	
